<?xml version="1.0" encoding="utf-8"?>
<!-- Generator: Adobe Illustrator 21.0.0, SVG Export Plug-In . SVG Version: 6.00 Build 0)  -->
<svg version="1.1" id="图层_1" xmlns="http://www.w3.org/2000/svg" xmlns:xlink="http://www.w3.org/1999/xlink" x="0px" y="0px"
	 viewBox="0 0 200 200" style="enable-background:new 0 0 200 200;" xml:space="preserve">
<style type="text/css">
	.st0{fill:#FFFFFF;}
</style>
<g id="XMLID_40_">
	<path id="XMLID_59_" class="st0" d="M1.2,72.2c0,0,6.5,0,10.9,0c0-6.3,8.7-20.7,22.7-22.9c14.9-2.3,20.6,3.3,34.2,15.8
		c0-10.2,1.8-37.1,30.9-37.1c27.3,0,30.2,27.2,30.8,36.9c10.6-10.9,19.2-17.3,32.2-16.1c11.7,1.1,23.3,13.4,24.6,23.5
		c3.5,0,6.6,0,10.7,0c0-16-19.7-34.8-37.1-34.5c-15.9,0.3-22.7,8-23.6,8c-2.6-11.3-14.9-29.5-37.7-29.5c-23.1,0-36.2,18.2-38.1,29.5
		c-7.2-6.1-19.3-10.5-33.2-6.4C14.4,43.5,1.2,58.5,1.2,72.2z"/>
	<g id="XMLID_41_">
		<path id="XMLID_57_" class="st0" d="M17.8,75.9c7.3,0,8.3,6.3,6.4,9c-2.9,4-13.2,4.8-13.2,7.8c0,0.3,0.7,0.7,1.7,0.7
			c3.5,0,11.3,0.1,11.3,0.1l0,3.8c0,0-13.4,0-16.8,0c-4.1,0-7.5-3.4-6.2-7.6c1.2-4,14.1-7.1,13.2-9.3c-0.2-0.5-3.4-0.4-3.4-0.4H1.7
			v-3.9C1.7,75.9,15,75.9,17.8,75.9z"/>
		<path id="XMLID_55_" class="st0" d="M88.4,75.9c7.3,0,8.3,6.3,6.4,9c-2.9,4-13.2,4.8-13.2,7.8c0,0.3,0.7,0.7,1.7,0.7
			c3.5,0,11.3,0.1,11.3,0.1l0,3.8c0,0-13.4,0-16.8,0c-4.1,0-7.5-3.4-6.2-7.6c1.2-4,14.1-7.1,13.2-9.3c-0.2-0.5-3.4-0.4-3.4-0.4h-9.1
			v-3.9C72.3,75.9,85.6,75.9,88.4,75.9z"/>
		<path id="XMLID_53_" class="st0" d="M37.6,84.6h9.7c0,0,1.8,0,3.3,0c2.1,0,4.3,2.2,4.3,4.2c0,1.3-0.6,8.2-0.6,8.2h-9.8l0.5-6.5
			c0,0-0.1-1.1-0.5-1.7c-0.4-0.5-1.9-0.5-1.9-0.5l-5.1,0l-1,8.6h-9.7l1.8-21.2h9.9L37.6,84.6z"/>
		<path id="XMLID_50_" class="st0" d="M99.3,97.1l2-21.2h8.9c0,0-1,13.4-1.3,15.8c-0.5,3.1-0.2,5.4-5.3,5.4H99.3z"/>
		<path id="XMLID_48_" class="st0" d="M58.9,97.1l2-21.2h8.9c0,0-1,13.4-1.3,15.8c-0.5,3.1-0.2,5.4-5.3,5.4H58.9z"/>
		<path id="XMLID_46_" class="st0" d="M192.1,86.7c0.3-3.3,0.4-10.8,0.4-10.8h6.4c0,0-0.7,14.9-1,16.1c-0.7,2.8-1.5,3.9-3.6,4.5
			c-3.4,0.9-6,0.3-7.5-1.4c-1.2-1.3-7.7-6.3-9.6-8.6c0,0-0.4-0.2-0.4,0.2l-0.7,10.4h-6.4c0,0,0.5-9.4,1-15.2
			c0.5-5.8,5.1-5.7,7.3-5.7c3,0,5.1,2.4,5.1,2.4L192.1,86.7z"/>
		<path id="XMLID_45_" class="st0" d="M56.1,80.1c-0.4,2-2.3,3.5-4.2,3.2C50,83,48.8,81.1,49.2,79c0.4-2.1,2.3-3.5,4.2-3.2
			C55.4,76.1,56.6,78,56.1,80.1z"/>
		<polygon id="XMLID_44_" class="st0" points="113.1,75.9 125.8,75.9 116.3,85.4 		"/>
		<polygon id="XMLID_43_" class="st0" points="116.9,87.2 120.1,98.1 139.2,75.9 128.1,75.9 		"/>
		<path id="XMLID_42_" class="st0" d="M139.3,75.9c0,0-0.3,8.1-0.4,8.8c0,10.5,8.6,12.4,14.1,12.4c5.4,0,14.4-3.5,15.2-9.3
			c0.8-5.8,1.1-11.7,1.1-11.7c-1.9,0-3.2,0-3.2,0c-7.7,0-7.6,4.3-8,7.3c-0.1,0.8-0.2,2.9-0.3,4.2c-0.2,2.1-0.2,5.7-4.9,5.7
			c-3.9,0-3.7-3.9-3.5-6.6c0.2-2.3,0.6-4,0.6-6.5c0-2.5-0.9-4.2-4.6-4.2C142.7,75.9,139.3,75.9,139.3,75.9z"/>
	</g>
</g>
<path id="XMLID_12_" class="st0" d="M14.3,120.1l9.7,0l0.6-1.7l-10,0c0.2-1.2,1.2-4.3,1.6-5.7c1.2,0,1.8,0,2.6-0.1
	c0,0,1.9-1.7,2-1.9h8.5c-0.3,0.7-0.6,1.4-0.8,1.7l14.5,0l-1.5,5.8l-8.1,0c0,0.4-0.5,1.6-0.6,1.8l8,0l-1.4,5.6l-7.5,0
	c0.2,0.3,2.2,2,2.5,2.3c1.1,0,1.9,0,4.6,0l-1.5,5.6c-2,0-6.3,0-8.3,0c-1.6-1.3-2.3-2.1-3.6-3.5c-2.2,2.4-3.6,3.5-6.2,3.5
	c-1.6,0-7.6-0.1-8.5,0c0.2-0.5,1.4-5.5,1.4-5.5s4.7,0,6.1,0c1.2-0.9,3.2-2.1,3.5-2.5l-9.2,0L14.3,120.1z M52.6,136.3 M49.8,111
	c2.5,0,19,0.1,19,0.1s-4,15.9-4.6,17.9c-0.6,2.4-1.6,4.4-4.6,4.4s-17.1,0-17.1,0h-3c0,0,3.3-14.2,3.9-16.7
	C44.3,112.8,45.6,111,49.8,111z M59.2,117l-7.4,0.1L49,127.9l7.5,0.1L59.2,117z"/>
<path id="XMLID_10_" class="st0" d="M6.1,133.7"/>
<path id="XMLID_9_" class="st0" d="M47.7,143.1h-38l-3.3,12.9c0,0,43.9,0,45.9,0c2.8,0,4.6-1.7,5.3-4.8c0.4-1.8,4.4-16.8,4.4-16.8
	s-41.5,0-44.8,0c-3.3,0-5.8,1.2-6.9,5.6c2.8,0,41,0.1,41,0.1l-2.5,10.5l-0.5,0.7H15.8l0.8-2.9h29.8L47.7,143.1z"/>
<path id="XMLID_7_" class="st0" d="M73.4,116.3c0,0,0.8-2.7,0.9-3.5c0.2-0.8,0.7-2.2,2.4-2.2c1.7,0,50.3-0.1,50.3-0.1l-1.4,5.6
	l-15.4,12.7l-1,4.1h13l-1.5,6.1h-13c0,0-2.3,9-2.6,10.4s0.2,6.6-8.3,6.6c-8.4,0-33.3,0-33.3,0l1.5-5.3c0,0,29.6,0,30.3,0
	c0.7,0,1.2-1,1.4-1.9c0.3-0.9,2.5-9.9,2.5-9.9H67.8l1.6-5.8h31.3l1.6-7.2l11.2-9.4H73.4z"/>
<path id="XMLID_6_" class="st0" d="M133.1,115.8c0.3-1.6,0.9-4.1,1-4.5c0.1-0.5,0.8-1.6,2.1-1.6c1.3,0,50.1,0,50.1,0s-0.9,3.5-1,3.7
	c-0.1,0.3-0.3,2.4-3.4,2.4C180.7,115.8,133.1,115.8,133.1,115.8z"/>
<path id="XMLID_4_" class="st0" d="M128.7,134.2c0,0,0.8-3.3,1-4.4c0.2-1.1,1.4-1.9,2.7-1.9c1.3,0,49.5,0,49.5,0s-0.9,3.3-1,4
	c-0.2,0.7-0.7,2.3-2.1,2.3c-1.4,0-30.7,0-31.7,0c-1.1,0-1.9-0.5-3.8,2.3c-1.9,2.8-9.5,13.8-9.5,13.8s32.5,0,33.3,0
	c0.8,0,1.1-1,1.3-1.7c0.2-0.7,2.1-8.4,2.1-8.4h8.1c0,0-2.6,10-2.9,11.5c-0.4,1.4-1.6,4.5-5.3,4.5s-47.2,0-47.2,0l1-4l12.3-17.7
	L128.7,134.2z"/>
</svg>
